<svg height="512pt" viewBox="0 -16 512 512" width="512pt" xmlns="http://www.w3.org/2000/svg" fill="#293347"><path d="m243.21875 138.269531c4.304688-2.183593 9.273438-2.261719 13.632812-.210937 5.65625 2.660156 9.148438 8.414062 8.902344 14.660156-.164062 4.148438 3.066406 7.644531 7.214844 7.808594.101562.003906.199219.003906.300781.003906 4.015625 0 7.347657-3.171875 7.507813-7.21875.484375-12.292969-6.394532-23.621094-17.527344-28.855469-8.582031-4.039062-18.367188-3.890625-26.835938.40625-3.699218 1.878907-5.179687 6.402344-3.300781 10.105469 1.878907 3.699219 6.40625 5.179688 10.105469 3.300781zm0 0"/><path d="m114.695312 160.789062c1.179688-.003906 2.378907-.28125 3.496094-.871093 3.671875-1.933594 5.082032-6.480469 3.144532-10.152344-1.257813-2.390625-1.699219-5.070313-1.269532-7.75 1.078125-6.78125 7.472656-11.425781 14.25-10.335937.683594.105468 1.375.277343 2.058594.511718 2.3125.78125 4.855469.398438 6.828125-1.035156 1.972656-1.429688 3.132813-3.730469 3.105469-6.167969-.011719-.71875.039062-1.433593.148437-2.117187 1.078125-6.78125 7.476563-11.414063 14.253907-10.335938 2.148437.339844 4.179687 1.246094 5.867187 2.613282 3.226563 2.613281 7.960937 2.117187 10.570313-1.109376 2.617187-3.222656 2.121093-7.957031-1.105469-10.570312-3.734375-3.027344-8.21875-5.027344-12.96875-5.785156-7.253907-1.148438-14.515625.585937-20.460938 4.898437-4.8125 3.492188-8.289062 8.332031-10.054687 13.902344-.085938 0-.171875 0-.257813 0-5.746093 0-11.335937 1.800781-16.078125 5.242187-5.941406 4.308594-9.851562 10.675782-11.003906 17.925782-.941406 5.914062.035156 11.835937 2.820312 17.121094 1.34375 2.554687 3.953126 4.015624 6.65625 4.015624zm0 0"/><path d="m501.152344 261.460938-5.523438-22.433594c-1.378906-5.613282-6.382812-9.535156-12.164062-9.535156h-50.378906v-71.210938c0-6.910156-5.617188-12.53125-12.527344-12.53125h-17.09375c-6.910156 0-12.527344 5.621094-12.527344 12.53125v71.210938h-43.636719l.746094-4.660157h.867187c6.90625 0 12.527344-5.621093 12.527344-12.527343v-24.570313c0-6.910156-5.621094-12.527344-12.527344-12.527344h-.625c2.464844-6.164062 3.75-12.769531 3.75-19.578125 0-28.882812-23.335937-52.417968-52.234374-52.746094-.277344-28.847656-23.832032-52.234374-52.75-52.234374-4.601563 0-9.167969.597656-13.585938 1.773437-.007812-1.355469-.066406-2.726563-.179688-4.085937-2.1875-26.585938-23.964843-47.351563-50.652343-48.3007818-14.453125-.5234372-28.152344 4.7265628-38.546875 14.7578128-10.316406 9.957031-16.03125 23.308593-16.121094 37.632812-4.417969-1.179687-8.984375-1.777343-13.585938-1.777343-28.882812 0-52.421874 23.335937-52.746093 52.234374-28.851563.277344-52.238281 23.835938-52.238281 52.75 0 6.804688 1.285156 13.410157 3.753906 19.574219h-.625c-6.90625 0-12.527344 5.617188-12.527344 12.527344v24.570313c0 6.910156 5.621094 12.527343 12.527344 12.527343h.867187l4.984375 31.054688c.660156 4.097656 4.503906 6.882812 8.617188 6.230469 4.097656-.660157 6.886718-4.515626 6.226562-8.613282l-4.601562-28.671875h49.832031l30.195313 240.28125h-41.445313l-28.445313-177.152343c-.65625-4.097657-4.503906-6.886719-8.613281-6.230469-4.101562.660156-6.886719 4.515625-6.230469 8.617187l28.648438 178.414063c1.058594 6.597656 6.679688 11.382812 13.359375 11.382812h229.597656c6.679688 0 12.296875-4.785156 13.359375-11.382812l16.476563-102.617188 2.421875 21.359375v.003906l6.394531 56.480469s0 .003907.003906.003907l2.734375 24.144531c.773438 6.847656 6.554688 12.007812 13.441406 12.007812h123.320313c6.886719 0 12.667969-5.160156 13.441406-12.007812l18.285157-161.421875c3.925781-2.117188 6.601562-6.265625 6.601562-11.03125v-21.820313c0-6.335937-4.734375-11.578125-10.847656-12.402343zm-95.179688-100.675782h12.082032v68.707032h-12.082032zm-7.519531 83.742188h83.046875l4.140625 16.808594h-147.253906l4.136719-16.808594zm-336.234375-126.613282h.027344c3.863281 0 7.488281-1.496093 10.207031-4.214843 2.726563-2.726563 4.222656-6.363281 4.214844-10.300781 0-20.796876 16.917969-37.71875 37.71875-37.71875 3.511719 0 6.992187.484374 10.339843 1.441406 4.402344 1.257812 9.011719.390625 12.640626-2.378906 3.632812-2.769532 5.6875-6.992188 5.636718-11.585938v-.40625c0-10.328125 4.09375-19.96875 11.527344-27.140625s17.25-10.917969 27.570312-10.550781c19.078126.675781 34.640626 15.511718 36.207032 34.507812.101562 1.226563.144531 2.46875.125 3.6875-.058594 4.527344 1.976562 8.707032 5.578125 11.464844 3.59375 2.75 8.34375 3.648438 12.707031 2.402344 3.347656-.957032 6.824219-1.441406 10.335938-1.441406 20.800781 0 37.71875 16.921874 37.71875 37.78125-.007813 3.875 1.488281 7.511718 4.214843 10.238281 2.71875 2.71875 6.34375 4.214843 10.273438 4.214843h.027343c20.796876 0 37.714844 16.917969 37.714844 37.714844 0 6.996094-1.878906 13.695313-5.464844 19.574219h-301.636718c-3.585938-5.878906-5.464844-12.578125-5.464844-19.574219 0-20.796875 16.917969-37.714844 37.78125-37.714844zm-47.183594 91.882813v-19.558594h320.480469.019531 10.875v19.558594zm108.765625 255.316406-30.195312-240.28125h48.375l7.828125 240.28125zm72.792969 0h-31.746094l-7.828125-240.28125h47.402344zm15.039062 0 7.832032-240.28125h48.375l-30.195313 240.28125zm111.238282-203.652343c-6.113282.828124-10.847656 6.066406-10.847656 12.402343v21.820313c0 4.765625 2.675781 8.917968 6.601562 11.035156l.433594 3.824219-24.820313 154.570312h-41.445312l30.199219-240.28125h49.832031l-1.382813 8.597657c-1.441406 1.53125-2.515625 3.4375-3.046875 5.597656zm149.457031 203.652343h-120.632813l-1.929687-17.039062 130.152344-49.960938zm15.960937-140.917969-73.164062 26.046876c-3.910156 1.394531-5.953125 5.691406-4.5625 9.601562 1.394531 3.914062 5.699219 5.953125 9.605469 4.5625l66.238281-23.585938-4.582031 40.460938-133.804688 51.363281-4.632812-40.902343 43.628906-15.53125c3.910156-1.394532 5.953125-5.695313 4.558594-9.605469-1.390625-3.910157-5.691407-5.949219-9.601563-4.558594l-40.320312 14.355469-7.722656-68.191406h156.171874zm8.675782-31.019531h-169.90625v-16.808593h169.90625zm0 0"/></svg>