<svg height="480pt" viewBox="-8 0 480 480" width="480pt" xmlns="http://www.w3.org/2000/svg" fill="#293347"><path d="m18.820312 342.953125 1.238282 4.328125c12.632812 44.316406 47.5 78.816406 91.953125 90.976562v33.742188c0 4.417969 3.582031 8 8 8h224c4.417969 0 8-3.582031 8-8v-33.742188c44.449219-12.160156 79.320312-46.660156 91.953125-90.976562l1.238281-4.328125c7.136719-25.007813 11.433594-50.738281 12.800781-76.707031l6.007813-113.820313c.117187-2.195312-.675781-4.339843-2.1875-5.933593-1.515625-1.59375-3.617188-2.496094-5.8125-2.492188h-58.234375l-22.175782-66.527344c-.273437-.816406-.675781-1.582031-1.191406-2.273437l-24-32c-.136718-.183594-.335937-.304688-.488281-.472657-.152344-.167968-.144531-.269531-.253906-.382812l-40-40c-1.5-1.5-3.535157-2.34375-5.65625-2.34375h-136c-.816407.0195312-1.625.160156-2.402344.425781-.214844.070313-.40625.148438-.613281.238281-.636719.257813-1.234375.601563-1.777344 1.023438-.09375.066406-.207031.097656-.296875.167969l-48 40c-.144531.121093-.199219.304687-.335937.433593-.347657.273438-.675782.578126-.976563.910157l-24 32c-.511719.691406-.914063 1.457031-1.191406 2.273437l-22.175781 66.527344h-58.230469c-2.199219-.003906-4.300781.898438-5.8125 2.492188s-2.304688 3.738281-2.1875002 5.933593l6.0000002 113.820313c1.371093 25.96875 5.667969 51.699218 12.808593 76.707031zm333.191407-62.953125v-208l8.800781 11.761719 23.488281 70.476562 7.925781 31.707031c.894532 3.566407 4.105469 6.066407 7.785157 6.054688.65625.003906 1.3125-.078125 1.953125-.238281 4.285156-1.074219 6.886718-5.421875 5.8125-9.707031l-5.519532-22.054688h45.320313l-5.550781 105.40625c-1.304688 24.765625-5.398438 49.300781-12.207032 73.144531l-1.242187 4.328125c-10.667969 37.441406-39.433594 67.019532-76.566406 78.722656zm-50.855469-263.542969 34.855469 34.855469v44.6875h-68zm-39.808594-.457031h22.664063l-33.335938 80h-22.664062l11.382812-27.320312v-.054688zm-17.335937 0-12 28.800781-12-28.800781zm-41.335938 0 20.671875 49.601562-11.335937 27.199219-32-76.800781zm-74.664062 35.742188 36.800781-30.652344 31.199219 74.910156h-68zm0 60.257812h208v16h-208zm0 32h208v40h-57.472657c.949219-2.5625 1.445313-5.269531 1.472657-8 0-13.253906-10.746094-24-24-24-9.226563.03125-17.984375 4.0625-24 11.054688-6.019531-6.992188-14.777344-11.023438-24-11.054688-13.253907 0-24 10.746094-24 24 .027343 2.730469.523437 5.4375 1.472656 8h-57.472656zm136 32c0 4.417969-3.582031 8-8 8h-16c0-8.835938 7.164062-16 16-16 4.417969 0 8 3.582031 8 8zm-40 8h-16c-4.417969 0-8-3.582031-8-8s3.582031-8 8-8c8.835937 0 16 7.164062 16 16zm-96 16h89.679687c-2.726562 6.246094-6.167968 12.152344-10.265625 17.601562-2.664062 3.53125-1.957031 8.558594 1.578125 11.222657 3.535156 2.664062 8.558594 1.957031 11.222656-1.578125 4.671876-6.242188 8.625-12.996094 11.785157-20.125 3.167969 7.132812 7.132812 13.882812 11.816406 20.125 2.664063 3.535156 7.6875 4.242187 11.222656 1.578125 3.535157-2.664063 4.242188-7.691407 1.578125-11.222657-4.105468-5.449218-7.5625-11.355468-10.296875-17.601562h89.679688v40h-208zm0 56h208v16h-208zm0 184v-152h208v176h-176v-48h-16v48h-16zm-66.25-280-5.511719 22.054688c-1.074219 4.285156 1.53125 8.632812 5.816406 9.707031.636719.160156 1.289063.238281 1.945313.238281 3.664062-.003906 6.859375-2.5 7.75-6.054688l7.929687-31.707031 23.519532-70.476562 8.800781-11.761719v349.601562c-37.132813-11.703124-65.898438-41.28125-76.570313-78.722656l-1.238281-4.320312c-6.808594-23.84375-10.902344-48.386719-12.207031-73.152344l-5.554688-105.40625zm0 0"/><path d="m288.011719 304h16v16h-16zm0 0"/><path d="m288.011719 336h16v16h-16zm0 0"/><path d="m304.011719 320h16v16h-16zm0 0"/><path d="m272.011719 320h16v16h-16zm0 0"/><path d="m384.011719 248h16v16h-16zm0 0"/><path d="m384.011719 280h16v16h-16zm0 0"/><path d="m400.011719 264h16v16h-16zm0 0"/><path d="m368.011719 264h16v16h-16zm0 0"/><path d="m184.011719 320h16v16h-16zm0 0"/><path d="m184.011719 368h16v16h-16zm0 0"/><path d="m208.011719 344h16v16h-16zm0 0"/><path d="m160.011719 344h16v16h-16zm0 0"/><path d="m80.011719 256h16v16h-16zm0 0"/><path d="m80.011719 304h16v16h-16zm0 0"/><path d="m56.011719 280h16v16h-16zm0 0"/><path d="m264.011719 400h16v16h-16zm0 0"/><path d="m264.011719 432h16v16h-16zm0 0"/><path d="m280.011719 416h16v16h-16zm0 0"/><path d="m248.011719 416h16v16h-16zm0 0"/><path d="m144.011719 384h16v16h-16zm0 0"/></svg>