<svg height="368pt" viewBox="0 0 368 368" width="368pt" xmlns="http://www.w3.org/2000/svg" fill="#293347"><path d="m54.519531 119.847656 10.601563 14.929688-17.34375 5.847656c-3.691406 1.238281-5.953125 4.953125-5.363282 8.800781 4.292969 27.847657 24.363282 50.675781 51.433594 58.503907-17.304687 22.238281-20.113281 52.503906-7.199218 77.550781 1.785156 3.441406 5.785156 5.109375 9.488281 3.953125l17.472656-5.472656.199219 18.304687c.039062 3.878906 2.859375 7.171875 6.6875 7.804687 27.8125 4.519532 55.71875-7.527343 71.503906-30.871093 13.453125 19.847656 35.847656 31.753906 59.824219 31.808593 3.921875 0 7.835937-.324218 11.703125-.96875 3.828125-.636718 6.648437-3.925781 6.6875-7.808593l.199218-18.300781 17.472657 5.46875c3.703125 1.160156 7.703125-.507813 9.488281-3.949219 12.90625-25.050781 10.097656-55.316407-7.199219-77.5625 27.070313-7.816407 47.140625-30.644531 51.425781-58.496094.589844-3.84375-1.671874-7.558594-5.363281-8.796875l-17.34375-5.851562 10.601563-14.925782c2.253906-3.160156 1.917968-7.476562-.800782-10.25-19.839843-20.011718-49.5-26.683594-76-17.085937.9375-28.167969-14.570312-54.3125-39.734374-67-3.476563-1.734375-7.691407-.722657-10 2.398437l-10.960938 14.714844-10.921875-14.699219c-2.308594-3.117187-6.523437-4.128906-10-2.398437-25.164063 12.683594-40.675781 38.824218-39.75 66.992187-26.5-9.601562-56.164063-2.929687-76 17.097657-2.726563 2.769531-3.070313 7.097656-.808594 10.261718zm82.402344-6.839844c2.757813 1.902344 6.414063 1.878907 9.152344-.054687s3.980469-5.371094 3.109375-8.609375c-6.125-23.285156 3.246094-47.886719 23.3125-61.191406l13.105468 17.648437c1.574219 1.925781 3.933594 3.042969 6.421876 3.042969 2.488281 0 4.847656-1.117188 6.425781-3.042969l13.09375-17.601562c20.097656 13.347656 29.457031 38.011719 23.273437 61.328125-.804687 3.210937.449219 6.582031 3.15625 8.484375 2.703125 1.902343 6.300782 1.945312 9.050782.109375 20.242187-12.96875 46.488281-11.640625 65.320312 3.304687l-12.71875 17.910157c-1.460938 2.066406-1.859375 4.703124-1.070312 7.109374.785156 2.40625 2.667968 4.296876 5.070312 5.097657l20.800781 7.015625c-6.457031 23.199218-26.960937 39.71875-51 41.089844-3.285156.195312-6.113281 2.375-7.132812 5.5s-.027344 6.558593 2.507812 8.652343c18.632813 15.238281 25.496094 40.648438 17.078125 63.199219l-20.949218-6.550781c-2.417969-.761719-5.050782-.332031-7.101563 1.15625s-3.273437 3.859375-3.300781 6.394531l-.238282 21.953125c-23.996093 1.082031-46.015624-13.238281-54.753906-35.609375-1.121094-3.175781-4.117187-5.308594-7.488281-5.332031-3.367187-.023438-6.390625 2.066406-7.558594 5.226562-8.734375 22.40625-30.765625 36.765625-54.792969 35.714844l-.238281-21.953125c-.027343-2.535156-1.25-4.90625-3.300781-6.394531s-4.683594-1.917969-7.101562-1.15625l-20.933594 6.550781c-8.414063-22.550781-1.546875-47.957031 17.078125-63.199219 2.570312-2.085937 3.589843-5.539062 2.566406-8.683593-1.023437-3.148438-3.878906-5.339844-7.179687-5.515626-24.039063-1.367187-44.542969-17.882812-50.992188-41.082031l20.796875-7.015625c2.402344-.800781 4.285156-2.691406 5.070313-5.097656.789062-2.40625.394531-5.042969-1.070313-7.109375l-12.71875-17.914063c18.796875-14.925781 44.996094-16.28125 65.230469-3.375zm0 0"/><path d="m123.710938 179.046875c2.390624.78125 4.886718 1.175781 7.402343 1.175781 7.460938-.019531 14.488281-3.492187 19.039063-9.40625l10.039062 3.261719c-.039062.648437-.191406 1.265625-.191406 1.921875.035156 7.402344 2.65625 14.5625 7.414062 20.230469l-6.269531 8.625c-11.207031-3.316407-23.175781 1.917969-28.34375 12.40625-5.164062 10.484375-2.027343 23.164062 7.433594 30.03125 9.457031 6.863281 22.488281 5.917969 30.855469-2.246094 8.367187-8.160156 9.636718-21.164063 3.007812-30.789063l6.207032-8.546874c7.5 3.050781 15.890624 3.050781 23.390624 0l6.207032 8.546874c-6.621094 9.628907-5.34375 22.632813 3.027344 30.789063 8.375 8.15625 21.40625 9.09375 30.859374 2.222656 9.457032-6.871093 12.585938-19.558593 7.410157-30.039062-5.171875-10.480469-17.144531-15.710938-28.351563-12.382813l-6.261718-8.617187c4.757812-5.667969 7.378906-12.828125 7.414062-20.230469 0-.65625-.152344-1.273438-.191406-1.921875l10.039062-3.261719c4.550782 5.914063 11.578125 9.386719 19.039063 9.40625 13.183593.042969 23.929687-10.550781 24.078125-23.730468.148437-13.179688-10.359375-24.011719-23.539063-24.265626-13.179687-.25-24.09375 10.171876-24.449219 23.347657l-10.054687 3.265625c-4.355469-6.789063-11.113281-11.683594-18.921875-13.703125v-10.609375c11.019531-3.894532 17.632812-15.164063 15.65625-26.683594-1.976562-11.523438-11.96875-19.941406-23.65625-19.941406s-21.679688 8.417968-23.65625 19.941406c-1.976562 11.519531 4.636719 22.789062 15.65625 26.683594v10.609375c-7.808594 2.019531-14.566406 6.914062-18.921875 13.703125l-10.054687-3.265625c-.339844-12.175781-9.765626-22.160157-21.90625-23.199219-12.136719-1.039062-23.125 7.195312-25.53125 19.136719-2.40625 11.945312 4.53125 23.792969 16.125 27.535156zm37.136718 53.433594c-2.605468 3.5625-7.601562 4.34375-11.167968 1.746093-3.570313-2.597656-4.359376-7.597656-1.765626-11.167968 2.59375-3.570313 7.589844-4.367188 11.164063-1.777344 1.742187 1.238281 2.90625 3.121094 3.238281 5.230469.335938 2.109375-.195312 4.261719-1.46875 5.976562zm64.0625-11.199219c1.71875-1.257812 3.867188-1.777344 5.96875-1.445312 2.101563.332031 3.984375 1.488281 5.234375 3.210937 1.902344 2.617187 2.042969 6.125.351563 8.886719-1.691406 2.757812-4.875 4.226562-8.074219 3.722656-3.210937-.496094-5.800781-2.882812-6.558594-6.039062-.761719-3.160157.46875-6.464844 3.105469-8.359376zm25.488282-72.664062c.804687-.265626 1.644531-.398438 2.488281-.402344 3.460937.019531 6.523437 2.25 7.601562 5.539062 1.363281 4.199219-.933593 8.710938-5.136719 10.078125-4.199218 1.363281-8.710937-.933593-10.078124-5.132812-1.367188-4.199219.925781-8.714844 5.125-10.082031zm-58.398438-44.617188c4.417969 0 8 3.582031 8 8s-3.582031 8-8 8-8-3.582031-8-8 3.582031-8 8-8zm0 56c8.835938 0 16 7.164062 16 16s-7.164062 16-16 16-16-7.164062-16-16 7.164062-16 16-16zm-68.480469-6.246094c1.363281-4.203125 5.875-6.503906 10.078125-5.140625 4.203125 1.359375 6.503906 5.871094 5.140625 10.074219-1.359375 4.203125-5.871093 6.507812-10.074219 5.144531-2.03125-.640625-3.71875-2.066406-4.683593-3.960937-.96875-1.894532-1.132813-4.101563-.460938-6.117188zm0 0"/><path d="m0 320h16v16h-16zm0 0"/><path d="m24 352h16v16h-16zm0 0"/><path d="m32 296h16v16h-16zm0 0"/><path d="m336 32h16v16h-16zm0 0"/><path d="m312 0h16v16h-16zm0 0"/><path d="m304 56h16v16h-16zm0 0"/><path d="m40 56h16v16h-16zm0 0"/><path d="m64 16h16v16h-16zm0 0"/><path d="m16 0h16v16h-16zm0 0"/><path d="m336 280h16v16h-16zm0 0"/><path d="m352 328h16v16h-16zm0 0"/><path d="m312 312h16v16h-16zm0 0"/></svg>