<svg height="512pt" viewBox="0 0 512 512.00204" width="512pt" xmlns="http://www.w3.org/2000/svg"><path d="m298.460938 350.402344-82.351563-33.617188c-5.113281-2.085937-10.949219.367188-13.039063 5.476563-1.578124 3.867187-5.296874 6.363281-9.46875 6.363281-5.636718 0-10.226562-4.585938-10.226562-10.226562 0-4.171876 2.5-7.890626 6.363281-9.46875 5.109375-2.085938 7.5625-7.921876 5.476563-13.035157l-33.613282-82.351562c-1.539062-3.761719-5.195312-6.222657-9.261718-6.222657-4.0625 0-7.722656 2.460938-9.257813 6.222657l-33.617187 82.351562c-2.085938 5.113281.367187 10.949219 5.476562 13.035157 3.863282 1.582031 6.363282 5.296874 6.363282 9.472656 0 5.636718-4.585938 10.222656-10.226563 10.222656-4.171875 0-7.890625-2.496094-9.46875-6.359375-2.085937-5.113281-7.917969-7.566406-13.035156-5.476563l-82.351563 33.613282c-3.761718 1.535156-6.222656 5.195312-6.222656 9.257812 0 4.066406 2.460938 7.726563 6.222656 9.261719l82.351563 33.613281c5.113281 2.085938 10.949219-.363281 13.035156-5.476562 1.578125-3.863282 5.296875-6.359375 9.472656-6.359375 5.636719 0 10.222657 4.585937 10.222657 10.222656 0 4.175781-2.496094 7.890625-6.363282 9.472656-5.109375 2.085938-7.5625 7.921875-5.476562 13.035157l33.617187 82.351562c1.539063 3.761719 5.195313 6.222656 9.261719 6.222656 4.0625 0 7.722656-2.460937 9.257812-6.222656l33.617188-82.351562c2.085938-5.113282-.367188-10.949219-5.480469-13.035157-3.863281-1.582031-6.359375-5.296875-6.359375-9.472656 0-5.636719 4.585938-10.222656 10.222656-10.222656 4.175782 0 7.894532 2.496093 9.472657 6.363281 2.085937 5.105469 7.917969 7.5625 13.035156 5.472656l82.351563-33.613281c3.761718-1.535156 6.222656-5.195313 6.222656-9.261719 0-4.0625-2.460938-7.722656-6.222656-9.257812zm-82.214844 30.472656c-5.625-6.371094-13.789063-10.175781-22.644532-10.175781-16.664062 0-30.222656 13.558593-30.222656 30.222656 0 8.855469 3.804688 17.019531 10.175782 22.644531l-21.214844 51.976563-21.214844-51.976563c6.371094-5.625 10.175781-13.785156 10.175781-22.644531 0-16.664063-13.558593-30.222656-30.222656-30.222656-8.855469 0-17.019531 3.804687-22.644531 10.175781l-51.972656-21.214844 51.976562-21.214844c5.625 6.375 13.785156 10.179688 22.644531 10.179688 16.664063 0 30.222657-13.558594 30.222657-30.226562 0-8.855469-3.804688-17.015626-10.179688-22.640626l21.21875-51.976562 21.214844 51.976562c-6.375 5.621094-10.179688 13.785157-10.179688 22.640626 0 16.667968 13.558594 30.226562 30.222656 30.226562 8.859376 0 17.019532-3.808594 22.644532-10.179688l51.976562 21.214844zm0 0"/><path d="m467.269531 158.277344c-2.140625-5.089844-8-7.480469-13.089843-5.347656-5.945313 2.496093-12.734376 1.164062-17.292969-3.394532-6.15625-6.15625-6.15625-16.175781 0-22.332031 4.5625-4.558594 11.347656-5.894531 17.292969-3.398437 5.089843 2.132812 10.949218-.253907 13.089843-5.347657l43.949219-104.582031c1.574219-3.746094.726562-8.074219-2.148438-10.945312-2.871093-2.8710942-7.199218-3.722657-10.941406-2.148438l-15.414062 6.480469c-5.09375 2.136719-7.484375 8-5.347656 13.089843 1.292968 3.078126 3.945312 5.171876 6.96875 5.871094l-32.175782 76.570313c-10.683594-1.253907-21.523437 2.375-29.414062 10.265625-13.957032 13.957031-13.957032 36.664062 0 50.621094 7.890625 7.890624 18.726562 11.519531 29.414062 10.261718l31.132813 74.085938-74.085938-31.132813c1.253907-10.683593-2.371093-21.523437-10.265625-29.414062-6.757812-6.761719-15.746094-10.484375-25.308594-10.484375s-18.550781 3.726562-25.308593 10.484375c-7.890625 7.890625-11.515625 18.730469-10.265625 29.414062l-74.085938 31.132813 31.136719-74.085938c10.6875 1.253906 21.519531-2.371094 29.410156-10.261718 6.761719-6.761719 10.484375-15.75 10.484375-25.3125s-3.722656-18.550782-10.484375-25.308594c-7.890625-7.890625-18.726562-11.519532-29.410156-10.265625l-15.175781-36.109375c-.011719-.027344-.023438-.050782-.03125-.078125l-15.925782-37.898438 74.082032 31.132813c-1.25 10.683594 2.375 21.523437 10.265625 29.414062 13.957031 13.957032 36.664062 13.957032 50.617187 0 7.894532-7.890625 11.519532-18.730468 10.265625-29.414062l7.503907-3.148438c5.089843-2.140625 7.484374-8.003906 5.34375-13.09375-2.140626-5.09375-8.003907-7.488281-13.09375-5.347656l-15.417969 6.480469c-5.089844 2.140625-7.484375 8-5.347657 13.089843 2.496094 5.945313 1.164063 12.730469-3.394531 17.292969-6.160156 6.15625-16.179687 6.152344-22.335937 0-4.558594-4.5625-5.890625-11.347656-3.394532-17.292969 2.136719-5.089843-.253906-10.949218-5.347656-13.089843l-104.582031-43.949219c-3.742187-1.574219-8.070313-.7226562-10.945313 2.148438-2.875 2.875-3.722656 7.199218-2.148437 10.945312l22.789063 54.222656-41.832032 41.832032c-3.90625 3.90625-3.90625 10.238281 0 14.144531 1.953125 1.949219 4.511719 2.925781 7.070313 2.925781 2.558593 0 5.117187-.976562 7.070312-2.925781l36.058594-36.058594 12.796875 30.445313c2.136719 5.089843 7.996094 7.480468 13.089844 5.347656 5.945312-2.496094 12.730468-1.164063 17.289062 3.394531 2.980469 2.980469 4.625 6.949219 4.625 11.167969s-1.644531 8.183594-4.625 11.167968c-4.558594 4.558594-11.347656 5.890626-17.289062 3.394532-5.089844-2.132813-10.953125.253906-13.089844 5.34375l-43.953125 104.585937c-1.574219 3.746094-.726563 8.070313 2.148437 10.945313 2.871094 2.871094 7.199219 3.722656 10.941407 2.148437l104.585937-43.953125c5.09375-2.136718 7.484375-8 5.347656-13.089844-2.496093-5.945312-1.164062-12.730468 3.394532-17.289062 2.984375-2.984375 6.949218-4.625 11.167968-4.625s8.183594 1.640625 11.167969 4.625c4.558594 4.558594 5.890625 11.34375 3.394531 17.289062-2.136718 5.089844.257813 10.953126 5.347657 13.089844l51.175781 21.507813-17.359375 17.359375c-3.902344 3.90625-3.902344 10.234375 0 14.140625 1.953125 1.953125 4.511719 2.929687 7.070313 2.929687 2.5625 0 5.121093-.976562 7.074218-2.929687l23.132813-23.128907 33.488281 14.074219c1.253906.523438 2.566406.78125 3.875.78125 2.601562 0 5.15625-1.019531 7.070312-2.929687 2.875-2.875 3.722657-7.199219 2.148438-10.945313zm0 0"/><path d="m152.339844 349.65625c-5.519532 0-10 4.480469-10 10v.007812c0 5.523438 4.480468 9.996094 10 9.996094 5.523437 0 10-4.480468 10-10.003906 0-5.519531-4.476563-10-10-10zm0 0"/><path d="m363.632812 138.363281v.011719c0 5.519531 4.476563 9.996094 10 9.996094 5.523438 0 10-4.484375 10-10.007813 0-5.519531-4.476562-9.996093-10-9.996093-5.523437 0-10 4.476562-10 9.996093zm0 0"/><path d="m374.191406 264.414062-46.582031 46.582032c-3.902344 3.902344-3.902344 10.234375 0 14.140625 1.953125 1.953125 4.515625 2.929687 7.074219 2.929687s5.117187-.976562 7.070312-2.929687l46.582032-46.582031c3.902343-3.902344 3.902343-10.234376 0-14.140626-3.90625-3.90625-10.238282-3.90625-14.144532 0zm0 0"/><path d="m195.789062 155.28125c2.558594 0 5.121094-.976562 7.074219-2.929688 3.90625-3.902343 3.90625-10.234374 0-14.140624s-10.238281-3.90625-14.144531 0l-.003906.003906c-3.90625 3.90625-3.902344 10.234375.003906 14.140625 1.953125 1.953125 4.511719 2.925781 7.070312 2.925781zm0 0"/><path d="m59.796875 438.058594-28.578125 28.582031c-3.90625 3.90625-3.90625 10.238281 0 14.144531 1.949219 1.953125 4.511719 2.929688 7.070312 2.929688 2.558594 0 5.117188-.976563 7.070313-2.929688l28.582031-28.582031c3.902344-3.90625 3.902344-10.238281 0-14.144531-3.90625-3.902344-10.238281-3.902344-14.144531 0zm0 0"/><path d="m2.9375 494.921875-.007812.007813c-3.90625 3.90625-3.902344 10.234374.003906 14.140624 1.953125 1.949219 4.511718 2.925782 7.070312 2.925782s5.121094-.976563 7.074219-2.929688c3.90625-3.90625 3.90625-10.238281 0-14.144531-3.90625-3.902344-10.234375-3.902344-14.140625 0zm0 0"/><path d="m449.710938 41.980469c1.3125 0 2.652343-.261719 3.9375-.8125l.007812-.003907c5.074219-2.175781 7.421875-8.054687 5.246094-13.128906-2.175782-5.078125-8.054688-7.429687-13.132813-5.25-5.078125 2.175782-7.429687 8.054688-5.253906 13.128906 1.625 3.792969 5.316406 6.066407 9.195313 6.066407zm0 0"/></svg>