<svg height="511pt" viewBox="0 -12 511.99903 511" width="511pt" xmlns="http://www.w3.org/2000/svg"><path d="m511.507812 186.136719c-1.25-3.855469-4.707031-6.570313-8.75-6.878907l-147.140624-11.207031c-2.65625-.195312-5.265626.660157-7.277344 2.386719-2.011719 1.730469-3.253906 4.191406-3.453125 6.835938-.816407 10.886718-10.023438 19.414062-20.960938 19.414062-11.589843 0-21.019531-9.429688-21.019531-21.019531 0-8.558594 5.113281-16.191407 13.027344-19.449219 5.105468-2.101562 7.539062-7.945312 5.4375-13.050781l-56.125-136.472657c-1.539063-3.75-5.191406-6.195312-9.246094-6.195312s-7.707031 2.445312-9.25 6.195312l-56.125 136.472657c-2.097656 5.105469.335938 10.949219 5.441406 13.050781 7.914063 3.257812 13.027344 10.894531 13.027344 19.449219 0 11.59375-9.429688 21.023437-21.019531 21.023437-10.9375 0-20.144531-8.527344-20.960938-19.417968-.199219-2.644532-1.441406-5.101563-3.457031-6.832032-2.011719-1.730468-4.621094-2.585937-7.277344-2.386718l-33.6875 2.5625c-5.507812.421874-9.628906 5.226562-9.210937 10.730468.417969 5.507813 5.21875 9.628906 10.730469 9.210938l24.957031-1.898438c5.488281 16.320313 21.007812 28.03125 38.90625 28.03125 22.617187 0 41.019531-18.402344 41.019531-41.023437 0-13.265625-6.300781-25.394531-16.632812-33.003907l43.539062-105.871093 43.539062 105.867187c-10.335937 7.613282-16.636718 19.742188-16.636718 33.007813 0 22.621093 18.402344 41.019531 41.023437 41.019531 17.894531 0 33.417969-11.707031 38.902344-28.027344l114.164063 8.695313-87.242188 74.132812c-6.894531-4.925781-15.199219-7.640625-23.84375-7.640625-22.621094 0-41.023438 18.402344-41.023438 41.023438 0 22.507812 18.222657 40.839844 40.6875 41.019531l5.90625 24.320313c1.109376 4.578124 5.199219 7.644531 9.707032 7.644531.78125 0 1.574218-.089844 2.367187-.285157 5.367188-1.300781 8.664063-6.707031 7.359375-12.074218l-7.96875-32.835938c-1.304687-5.363281-6.707031-8.65625-12.070312-7.359375-1.621094.390625-3.289063.589844-4.96875.589844-11.589844 0-21.019532-9.429687-21.019532-21.019531 0-11.59375 9.429688-21.023438 21.019532-21.023438 6.175781 0 12.015625 2.703125 16.023437 7.414063 3.578125 4.207031 9.886719 4.71875 14.09375 1.144531l112.453125-95.554688c3.089844-2.628906 4.289063-6.855468 3.035156-10.714843zm0 0"/><path d="m409.785156 443.234375c-1.304687-5.367187-6.703125-8.664063-12.078125-7.359375-5.367187 1.304688-8.660156 6.710938-7.355469 12.078125l2.230469 9.195313-97.460937-60.0625c1.253906-3.976563 1.898437-8.144532 1.898437-12.363282 0-22.621094-18.398437-41.019531-41.019531-41.019531-22.617188 0-41.019531 18.402344-41.019531 41.019531 0 4.222656.644531 8.386719 1.902343 12.363282l-97.464843 60.0625 27.007812-111.257813c22.46875-.179687 40.6875-18.511719 40.6875-41.019531 0-22.621094-18.402343-41.023438-41.019531-41.023438-8.644531 0-16.953125 2.714844-23.84375 7.640625l-87.246094-74.132812 9.4375-.71875c5.507813-.421875 9.632813-5.226563 9.210938-10.730469-.417969-5.507812-5.21875-9.632812-10.726563-9.214844l-33.683593 2.566406c-4.042969.308594-7.5 3.023438-8.753907 6.882813-1.25 3.855469-.050781 8.085937 3.035157 10.710937l112.457031 95.554688c4.207031 3.574219 10.515625 3.0625 14.09375-1.140625 4.007812-4.714844 9.847656-7.417969 16.019531-7.417969 11.59375 0 21.019531 9.429688 21.019531 21.023438 0 11.589844-9.429687 21.019531-21.019531 21.019531-1.675781 0-3.347656-.199219-4.96875-.589844-5.371094-1.296875-10.765625 1.996094-12.066406 7.359375l-34.8125 143.402344c-.957032 3.9375.5625 8.0625 3.839844 10.445312 1.746093 1.269532 3.8125 1.910157 5.878906 1.910157 1.8125 0 3.632812-.492188 5.246094-1.484375l125.625-77.421875c2.257812-1.394531 3.871093-3.625 4.484374-6.207031.609376-2.582032.171876-5.304688-1.222656-7.5625-2.042968-3.300782-3.117187-7.113282-3.117187-11.019532 0-11.589844 9.429687-21.019531 21.019531-21.019531s21.019531 9.429687 21.019531 21.019531c0 3.90625-1.078125 7.71875-3.117187 11.019532-1.394532 2.257812-1.835938 4.980468-1.222656 7.5625.609374 2.582031 2.226562 4.816406 4.484374 6.207031l125.625 77.421875c3.449219 2.125 7.84375 1.957031 11.125-.425782 3.277344-2.382812 4.792969-6.507812 3.839844-10.449218zm0 0"/><path d="m256 310.179688c22.617188 0 41.019531-18.402344 41.019531-41.019532 0-22.621094-18.402343-41.023437-41.019531-41.023437-22.621094 0-41.019531 18.402343-41.019531 41.023437-.003907 22.617188 18.398437 41.019532 41.019531 41.019532zm0-62.042969c11.589844 0 21.019531 9.433593 21.019531 21.023437s-9.429687 21.019532-21.019531 21.019532-21.019531-9.429688-21.019531-21.019532 9.429687-21.023437 21.019531-21.023437zm0 0"/><path d="m83.558594 193.628906c.238281 0 .480468-.011718.722656-.027344 5.511719-.394531 9.65625-5.179687 9.261719-10.6875-.390625-5.507812-5.15625-9.644531-10.6875-9.261718h-.003907c-5.511718.394531-9.652343 5.179687-9.257812 10.6875.375 5.265625 4.765625 9.289062 9.964844 9.289062zm0 0"/><path d="m390.628906 416.730469c.851563 0 1.71875-.113281 2.582032-.339844 5.335937-1.425781 8.507812-6.902344 7.085937-12.242187v-.003907c-1.425781-5.339843-6.90625-8.507812-12.238281-7.082031-5.335938 1.421875-8.507813 6.902344-7.085938 12.242188 1.191406 4.472656 5.234375 7.425781 9.65625 7.425781zm0 0"/></svg>